<mxfile host="app.diagrams.net" agent="Mozilla/5.0 (Windows NT 10.0; Win64; x64) AppleWebKit/537.36 (KHTML, like Gecko) Chrome/140.0.0.0 Safari/537.36" version="28.2.5">
  <diagram name="Página-1" id="z6UvjseILr_tBC2ietQA">
    <mxGraphModel dx="698" dy="349" grid="0" gridSize="10" guides="1" tooltips="1" connect="1" arrows="1" fold="1" page="1" pageScale="1" pageWidth="1169" pageHeight="827" math="0" shadow="0">
      <root>
        <mxCell id="0" />
        <mxCell id="1" parent="0" />
        <mxCell id="TK_HLBVV-0dmn3qTHE2F-1" value="" style="whiteSpace=wrap;html=1;" vertex="1" parent="1">
          <mxGeometry x="170" y="39" width="620" height="421" as="geometry" />
        </mxCell>
        <mxCell id="TK_HLBVV-0dmn3qTHE2F-3" value="" style="whiteSpace=wrap;html=1;" vertex="1" parent="1">
          <mxGeometry x="170" y="39" width="132" height="421" as="geometry" />
        </mxCell>
        <mxCell id="TK_HLBVV-0dmn3qTHE2F-5" value="" style="whiteSpace=wrap;html=1;" vertex="1" parent="1">
          <mxGeometry x="302" y="39" width="488" height="46" as="geometry" />
        </mxCell>
        <mxCell id="TK_HLBVV-0dmn3qTHE2F-6" value="Página" style="text;strokeColor=none;align=center;fillColor=none;html=1;verticalAlign=middle;whiteSpace=wrap;rounded=0;" vertex="1" parent="1">
          <mxGeometry x="500" y="234.5" width="60" height="30" as="geometry" />
        </mxCell>
        <mxCell id="TK_HLBVV-0dmn3qTHE2F-8" value="logo" style="text;strokeColor=none;align=center;fillColor=none;html=1;verticalAlign=middle;whiteSpace=wrap;rounded=0;" vertex="1" parent="1">
          <mxGeometry x="200" y="47" width="60" height="30" as="geometry" />
        </mxCell>
        <mxCell id="TK_HLBVV-0dmn3qTHE2F-9" value="Menu" style="text;strokeColor=none;align=center;fillColor=none;html=1;verticalAlign=middle;whiteSpace=wrap;rounded=0;" vertex="1" parent="1">
          <mxGeometry x="200" y="234.5" width="60" height="30" as="geometry" />
        </mxCell>
        <mxCell id="TK_HLBVV-0dmn3qTHE2F-11" value="" style="whiteSpace=wrap;html=1;" vertex="1" parent="1">
          <mxGeometry x="785" y="85" width="5" height="375" as="geometry" />
        </mxCell>
        <mxCell id="TK_HLBVV-0dmn3qTHE2F-12" value="" style="whiteSpace=wrap;html=1;fillColor=#0B0B0B;" vertex="1" parent="1">
          <mxGeometry x="785" y="142" width="5" height="47" as="geometry" />
        </mxCell>
        <mxCell id="TK_HLBVV-0dmn3qTHE2F-14" value="" style="endArrow=none;dashed=1;html=1;dashPattern=1 3;strokeWidth=2;rounded=0;entryX=0;entryY=1;entryDx=0;entryDy=0;exitX=0.002;exitY=0.11;exitDx=0;exitDy=0;exitPerimeter=0;" edge="1" parent="1" source="TK_HLBVV-0dmn3qTHE2F-3" target="TK_HLBVV-0dmn3qTHE2F-5">
          <mxGeometry width="50" height="50" relative="1" as="geometry">
            <mxPoint x="398" y="180" as="sourcePoint" />
            <mxPoint x="448" y="130" as="targetPoint" />
          </mxGeometry>
        </mxCell>
        <mxCell id="TK_HLBVV-0dmn3qTHE2F-15" value="" style="endArrow=none;dashed=1;html=1;dashPattern=1 3;strokeWidth=2;rounded=0;entryX=0;entryY=1;entryDx=0;entryDy=0;exitX=0.002;exitY=0.11;exitDx=0;exitDy=0;exitPerimeter=0;" edge="1" parent="1">
          <mxGeometry width="50" height="50" relative="1" as="geometry">
            <mxPoint x="170" y="403" as="sourcePoint" />
            <mxPoint x="302" y="403" as="targetPoint" />
          </mxGeometry>
        </mxCell>
        <mxCell id="TK_HLBVV-0dmn3qTHE2F-16" value="" style="whiteSpace=wrap;html=1;" vertex="1" parent="1">
          <mxGeometry x="297" y="85" width="5" height="318" as="geometry" />
        </mxCell>
        <mxCell id="TK_HLBVV-0dmn3qTHE2F-17" value="" style="whiteSpace=wrap;html=1;fillColor=#0B0B0B;" vertex="1" parent="1">
          <mxGeometry x="297" y="142" width="5" height="47" as="geometry" />
        </mxCell>
        <mxCell id="TK_HLBVV-0dmn3qTHE2F-30" value="" style="endArrow=classic;html=1;rounded=0;entryX=0.088;entryY=0.739;entryDx=0;entryDy=0;entryPerimeter=0;" edge="1" parent="1" target="TK_HLBVV-0dmn3qTHE2F-5">
          <mxGeometry width="50" height="50" relative="1" as="geometry">
            <mxPoint x="380" y="122" as="sourcePoint" />
            <mxPoint x="98" y="112" as="targetPoint" />
          </mxGeometry>
        </mxCell>
        <mxCell id="TK_HLBVV-0dmn3qTHE2F-31" value="" style="endArrow=none;html=1;rounded=0;entryX=1;entryY=0.75;entryDx=0;entryDy=0;" edge="1" parent="1" target="TK_HLBVV-0dmn3qTHE2F-32">
          <mxGeometry width="50" height="50" relative="1" as="geometry">
            <mxPoint x="380" y="122" as="sourcePoint" />
            <mxPoint x="465" y="118" as="targetPoint" />
          </mxGeometry>
        </mxCell>
        <mxCell id="TK_HLBVV-0dmn3qTHE2F-32" value="Toggle" style="text;strokeColor=none;align=center;fillColor=none;html=1;verticalAlign=middle;whiteSpace=wrap;rounded=0;" vertex="1" parent="1">
          <mxGeometry x="368" y="100" width="60" height="30" as="geometry" />
        </mxCell>
        <mxCell id="TK_HLBVV-0dmn3qTHE2F-33" value="" style="rounded=0;whiteSpace=wrap;html=1;" vertex="1" parent="1">
          <mxGeometry x="362" y="39" width="304" height="46" as="geometry" />
        </mxCell>
        <mxCell id="TK_HLBVV-0dmn3qTHE2F-7" value="Header" style="text;strokeColor=none;align=center;fillColor=none;html=1;verticalAlign=middle;whiteSpace=wrap;rounded=0;" vertex="1" parent="1">
          <mxGeometry x="500" y="47" width="60" height="30" as="geometry" />
        </mxCell>
        <mxCell id="TK_HLBVV-0dmn3qTHE2F-34" value="" style="html=1;verticalLabelPosition=bottom;align=center;labelBackgroundColor=#ffffff;verticalAlign=top;strokeWidth=2;strokeColor=#0080F0;shadow=0;dashed=0;shape=mxgraph.ios7.icons.bell;" vertex="1" parent="1">
          <mxGeometry x="769.31" y="44" width="15.69" height="15.1" as="geometry" />
        </mxCell>
        <mxCell id="TK_HLBVV-0dmn3qTHE2F-35" value="Perfil" style="text;strokeColor=none;align=center;fillColor=none;html=1;verticalAlign=middle;whiteSpace=wrap;rounded=0;" vertex="1" parent="1">
          <mxGeometry x="200" y="421" width="60" height="30" as="geometry" />
        </mxCell>
        <mxCell id="TK_HLBVV-0dmn3qTHE2F-36" value="" style="html=1;verticalLabelPosition=bottom;align=center;labelBackgroundColor=#ffffff;verticalAlign=top;strokeWidth=2;strokeColor=#0080F0;shadow=0;dashed=0;shape=mxgraph.ios7.icons.sun;pointerEvents=1" vertex="1" parent="1">
          <mxGeometry x="740" y="44" width="18" height="18" as="geometry" />
        </mxCell>
        <mxCell id="TK_HLBVV-0dmn3qTHE2F-37" value="00:00:00" style="text;strokeColor=none;align=center;fillColor=none;html=1;verticalAlign=middle;whiteSpace=wrap;rounded=0;" vertex="1" parent="1">
          <mxGeometry x="725" y="59.099999999999994" width="60" height="30" as="geometry" />
        </mxCell>
        <mxCell id="TK_HLBVV-0dmn3qTHE2F-38" value="" style="html=1;verticalLabelPosition=bottom;align=center;labelBackgroundColor=#ffffff;verticalAlign=top;strokeWidth=2;strokeColor=#0080F0;shadow=0;dashed=0;shape=mxgraph.ios7.icons.most_viewed;pointerEvents=1" vertex="1" parent="1">
          <mxGeometry x="312" y="47" width="28.2" height="22.8" as="geometry" />
        </mxCell>
        <mxCell id="TK_HLBVV-0dmn3qTHE2F-39" value="Time:" style="text;strokeColor=none;align=center;fillColor=none;html=1;verticalAlign=middle;whiteSpace=wrap;rounded=0;" vertex="1" parent="1">
          <mxGeometry x="672" y="59.099999999999994" width="60" height="30" as="geometry" />
        </mxCell>
        <mxCell id="TK_HLBVV-0dmn3qTHE2F-41" value="" style="html=1;verticalLabelPosition=bottom;align=center;labelBackgroundColor=#ffffff;verticalAlign=top;strokeWidth=2;strokeColor=#0080F0;shadow=0;dashed=0;shape=mxgraph.ios7.icons.play;" vertex="1" parent="1">
          <mxGeometry x="694.5" y="48" width="15" height="10" as="geometry" />
        </mxCell>
      </root>
    </mxGraphModel>
  </diagram>
</mxfile>
